<svg aria-label="Interactive chart" aria-hidden="false" viewBox="0 0 600 400" height="400" width="600" xmlns="http://www.w3.org/2000/svg" style="font-family:&quot;Lucida Grande&quot;, &quot;Lucida Sans Unicode&quot;, Arial, Helvetica, sans-serif;font-size:12px;" class="highcharts-root" version="1.1" xmlns:xlink="http://www.w3.org/1999/xlink"><desc aria-hidden="true">Created with Highcharts 8.2.2</desc><defs aria-hidden="true"><clipPath id="highcharts-lw242qf-356-"><rect fill="none" height="257" width="516" y="0" x="0"></rect></clipPath></defs><rect aria-hidden="true" ry="0" rx="0" height="400" width="600" y="0" x="0" class="highcharts-background" fill-opacity="0" fill="rgb(0,0,0)"></rect><rect aria-hidden="true" height="257" width="516" y="53" x="74" class="highcharts-plot-background" fill="none"></rect><g aria-hidden="true" data-z-index="0" class="highcharts-pane-group"></g><g aria-hidden="true" data-z-index="1" class="highcharts-grid highcharts-xaxis-grid"><path opacity="1" d="M 125.5 53 L 125.5 310" class="highcharts-grid-line" data-z-index="1" fill="none"></path><path opacity="1" d="M 176.5 53 L 176.5 310" class="highcharts-grid-line" data-z-index="1" fill="none"></path><path opacity="1" d="M 228.5 53 L 228.5 310" class="highcharts-grid-line" data-z-index="1" fill="none"></path><path opacity="1" d="M 279.5 53 L 279.5 310" class="highcharts-grid-line" data-z-index="1" fill="none"></path><path opacity="1" d="M 331.5 53 L 331.5 310" class="highcharts-grid-line" data-z-index="1" fill="none"></path><path opacity="1" d="M 383.5 53 L 383.5 310" class="highcharts-grid-line" data-z-index="1" fill="none"></path><path opacity="1" d="M 434.5 53 L 434.5 310" class="highcharts-grid-line" data-z-index="1" fill="none"></path><path opacity="1" d="M 486.5 53 L 486.5 310" class="highcharts-grid-line" data-z-index="1" fill="none"></path><path opacity="1" d="M 537.5 53 L 537.5 310" class="highcharts-grid-line" data-z-index="1" fill="none"></path><path opacity="1" d="M 589.5 53 L 589.5 310" class="highcharts-grid-line" data-z-index="1" fill="none"></path><path opacity="1" d="M 73.5 53 L 73.5 310" class="highcharts-grid-line" data-z-index="1" fill="none"></path></g><g aria-hidden="true" data-z-index="1" class="highcharts-grid highcharts-yaxis-grid"><path opacity="1" d="M 74 310.5 L 590 310.5" class="highcharts-grid-line" data-z-index="1" stroke-width="1" stroke="#e6e6e6" fill="none"></path><path opacity="1" d="M 74 224.5 L 590 224.5" class="highcharts-grid-line" data-z-index="1" stroke-width="1" stroke="#e6e6e6" fill="none"></path><path opacity="1" d="M 74 139.5 L 590 139.5" class="highcharts-grid-line" data-z-index="1" stroke-width="1" stroke="#e6e6e6" fill="none"></path><path opacity="1" d="M 74 52.5 L 590 52.5" class="highcharts-grid-line" data-z-index="1" stroke-width="1" stroke="#e6e6e6" fill="none"></path></g><rect aria-hidden="true" height="257" width="516" y="53" x="74" data-z-index="1" class="highcharts-plot-border" fill="none"></rect><g aria-hidden="true" data-z-index="2" class="highcharts-axis highcharts-xaxis"><path d="M 74 310.5 L 590 310.5" data-z-index="7" stroke-width="1" stroke="#ccd6eb" class="highcharts-axis-line" fill="none"></path></g><g aria-hidden="true" data-z-index="2" class="highcharts-axis highcharts-yaxis"><text y="181.5" style="color:#666666;fill:#666666;" class="highcharts-axis-title" transform="translate(0,0) rotate(270 26.0888671875 181.5)" text-anchor="middle" data-z-index="7" x="26.0888671875"><tspan>Populasi (jiwa)</tspan></text><path d="M 74 53 L 74 310" data-z-index="7" class="highcharts-axis-line" fill="none"></path></g><g aria-hidden="false" data-z-index="3" class="highcharts-series-group"><g aria-hidden="true" clip-path="url(#highcharts-lw242qf-356-)" transform="translate(74,53) scale(1 1)" opacity="1" data-z-index="0.1" class="highcharts-series highcharts-series-0 highcharts-areaspline-series"><path data-z-index="0" class="highcharts-area" d="M 25.8 200.46 C 25.8 200.46 56.760000000000005 215.02333333333334 77.4 215.02333333333334 C 98.04 215.02333333333334 108.35999999999999 77.52833333333334 129 77.52833333333334 C 149.64000000000001 77.52833333333334 159.95999999999998 185.89666666666665 180.6 185.89666666666665 C 201.23999999999998 185.89666666666665 211.56 185.04 232.2 185.04 C 252.83999999999997 185.04 263.16 254.00166666666667 283.8 254.00166666666667 C 304.44 254.00166666666667 314.76 252.45966666666666 335.4 250.575 C 356.03999999999996 248.69033333333334 366.36 244.57833333333332 387 244.57833333333332 C 407.64 244.57833333333332 417.96000000000004 256.1433333333333 438.6 256.57166666666666 C 459.24000000000007 257 490.2 257 490.2 257 L 490.2 257 C 490.2 257 459.24000000000007 257 438.6 257 C 417.96000000000004 257 407.64 257 387 257 C 366.36 257 356.03999999999996 257 335.4 257 C 314.76 257 304.44 257 283.8 257 C 263.16 257 252.83999999999997 257 232.2 257 C 211.56 257 201.23999999999998 257 180.6 257 C 159.95999999999998 257 149.64000000000001 257 129 257 C 108.35999999999999 257 98.04 257 77.4 257 C 56.760000000000005 257 25.8 257 25.8 257" fill-opacity="0.4" fill="rgb(0,61,255)"></path><path stroke-linecap="round" stroke-linejoin="round" stroke-width="2" stroke-opacity="0.5" stroke="rgb(0, 61, 255)" data-z-index="1" class="highcharts-graph" d="M 25.8 200.46 C 25.8 200.46 56.760000000000005 215.02333333333334 77.4 215.02333333333334 C 98.04 215.02333333333334 108.35999999999999 77.52833333333334 129 77.52833333333334 C 149.64000000000001 77.52833333333334 159.95999999999998 185.89666666666665 180.6 185.89666666666665 C 201.23999999999998 185.89666666666665 211.56 185.04 232.2 185.04 C 252.83999999999997 185.04 263.16 254.00166666666667 283.8 254.00166666666667 C 304.44 254.00166666666667 314.76 252.45966666666666 335.4 250.575 C 356.03999999999996 248.69033333333334 366.36 244.57833333333332 387 244.57833333333332 C 407.64 244.57833333333332 417.96000000000004 256.1433333333333 438.6 256.57166666666666 C 459.24000000000007 257 490.2 257 490.2 257" fill="none"></path></g><g style="outline: 0px;" aria-label="Wanita, series 1 of 2 with 10 data points." tabindex="-1" role="region" aria-hidden="false" clip-path="none" transform="translate(74,53) scale(1 1)" opacity="1" data-z-index="0.1" class="highcharts-markers highcharts-series-0 highcharts-areaspline-series"><path style="outline: 0px;" aria-label="1. Pengangguran, 132 jiwa. Wanita." role="img" tabindex="-1" class="highcharts-point" opacity="1" d="M 25 204 A 4 4 0 1 1 25.003999999333335 203.99999800000018 Z" fill-opacity="0.5" fill="rgb(0, 61, 255)"></path><path style="outline: 0px;" aria-label="2. Rumah Tangga, 98 jiwa. Wanita." role="img" tabindex="-1" class="highcharts-point" opacity="1" d="M 77 219 A 4 4 0 1 1 77.00399999933333 218.99999800000018 Z" fill-opacity="0.5" fill="rgb(0, 61, 255)"></path><path style="outline: 0px;" aria-label="3. Pelajar, 419 jiwa. Wanita." role="img" tabindex="-1" class="highcharts-point" opacity="1" d="M 129 82 A 4 4 0 1 1 129.00399999933333 81.99999800000016 Z" fill-opacity="0.5" fill="rgb(0, 61, 255)"></path><path style="outline: 0px;" aria-label="4. Pensiunan, 166 jiwa. Wanita." role="img" tabindex="-1" class="highcharts-point" opacity="1" d="M 180 190 A 4 4 0 1 1 180.00399999933333 189.99999800000018 Z" fill-opacity="0.5" fill="rgb(0, 61, 255)"></path><path style="outline: 0px;" aria-label="5. PNS, 168 jiwa. Wanita." role="img" tabindex="-1" class="highcharts-point" opacity="1" d="M 232 189 A 4 4 0 1 1 232.00399999933333 188.99999800000018 Z" fill-opacity="0.5" fill="rgb(0, 61, 255)"></path><path style="outline: 0px;" aria-label="6. TNI, 7 jiwa. Wanita." role="img" tabindex="-1" class="highcharts-point" opacity="1" d="M 283 258 A 4 4 0 1 1 283.00399999933336 257.9999980000002 Z" fill-opacity="0.5" fill="rgb(0, 61, 255)"></path><path style="outline: 0px;" aria-label="7. POLRI, 15 jiwa. Wanita." role="img" tabindex="-1" class="highcharts-point" opacity="1" d="M 335 255 A 4 4 0 1 1 335.00399999933336 254.99999800000018 Z" fill-opacity="0.5" fill="rgb(0, 61, 255)"></path><path style="outline: 0px;" aria-label="8. Pedagang, 29 jiwa. Wanita." role="img" tabindex="-1" class="highcharts-point" opacity="1" d="M 387 249 A 4 4 0 1 1 387.00399999933336 248.99999800000018 Z" fill-opacity="0.5" fill="rgb(0, 61, 255)"></path><path style="outline: 0px;" aria-label="9. Petani, 1 jiwa. Wanita." role="img" tabindex="-1" class="highcharts-point" opacity="1" d="M 438 261 A 4 4 0 1 1 438.00399999933336 260.9999980000002 Z" fill-opacity="0.5" fill="rgb(0, 61, 255)"></path><path style="outline: 0px;" aria-label="10. Peternak, 0 jiwa. Wanita." role="img" tabindex="-1" class="highcharts-point" opacity="1" d="M 490 261 A 4 4 0 1 1 490.00399999933336 260.9999980000002 Z" fill-opacity="0.5" fill="rgb(0, 61, 255)"></path></g><g aria-hidden="true" clip-path="url(#highcharts-lw242qf-356-)" transform="translate(74,53) scale(1 1)" opacity="1" data-z-index="0.1" class="highcharts-series highcharts-series-1 highcharts-areaspline-series"><path data-z-index="0" class="highcharts-area" d="M 25.8 230.015 C 25.8 230.015 56.760000000000005 234.72666666666666 77.4 234.72666666666666 C 98.04 234.72666666666666 108.35999999999999 35.55166666666665 129 35.55166666666665 C 149.64000000000001 35.55166666666665 159.95999999999998 168.76333333333332 180.6 168.76333333333332 C 201.23999999999998 168.76333333333332 211.56 154.2 232.2 154.2 C 252.83999999999997 154.2 263.16 254.85833333333332 283.8 254.85833333333332 C 304.44 254.85833333333332 314.76 254.77266666666668 335.4 252.28833333333333 C 356.03999999999996 249.80399999999997 366.36 242.43666666666667 387 242.43666666666667 C 407.64 242.43666666666667 417.96000000000004 256.57166666666666 438.6 256.57166666666666 C 459.24000000000007 256.57166666666666 490.2 256.57166666666666 490.2 256.57166666666666 L 490.2 257 C 490.2 257 459.24000000000007 257 438.6 257 C 417.96000000000004 257 407.64 257 387 257 C 366.36 257 356.03999999999996 257 335.4 257 C 314.76 257 304.44 257 283.8 257 C 263.16 257 252.83999999999997 257 232.2 257 C 211.56 257 201.23999999999998 257 180.6 257 C 159.95999999999998 257 149.64000000000001 257 129 257 C 108.35999999999999 257 98.04 257 77.4 257 C 56.760000000000005 257 25.8 257 25.8 257" fill-opacity="0.4" fill="rgb(0,0,0)"></path><path stroke-linecap="round" stroke-linejoin="round" stroke-width="2" stroke-opacity="0.6" stroke="rgb(0, 0, 0)" data-z-index="1" class="highcharts-graph" d="M 25.8 230.015 C 25.8 230.015 56.760000000000005 234.72666666666666 77.4 234.72666666666666 C 98.04 234.72666666666666 108.35999999999999 35.55166666666665 129 35.55166666666665 C 149.64000000000001 35.55166666666665 159.95999999999998 168.76333333333332 180.6 168.76333333333332 C 201.23999999999998 168.76333333333332 211.56 154.2 232.2 154.2 C 252.83999999999997 154.2 263.16 254.85833333333332 283.8 254.85833333333332 C 304.44 254.85833333333332 314.76 254.77266666666668 335.4 252.28833333333333 C 356.03999999999996 249.80399999999997 366.36 242.43666666666667 387 242.43666666666667 C 407.64 242.43666666666667 417.96000000000004 256.57166666666666 438.6 256.57166666666666 C 459.24000000000007 256.57166666666666 490.2 256.57166666666666 490.2 256.57166666666666" fill="none"></path></g><g style="outline: 0px;" aria-label="Pria, series 2 of 2 with 10 data points." tabindex="-1" role="region" aria-hidden="false" clip-path="none" transform="translate(74,53) scale(1 1)" opacity="1" data-z-index="0.1" class="highcharts-markers highcharts-series-1 highcharts-areaspline-series"><path style="outline: 0px;" aria-label="1. Pengangguran, 63 jiwa. Pria." role="img" tabindex="-1" class="highcharts-point" opacity="1" d="M 25 226 L 29 230 L 25 234 L 21 230 Z" fill-opacity="0.6" fill="rgb(0, 0, 0)"></path><path style="outline: 0px;" aria-label="2. Rumah Tangga, 52 jiwa. Pria." role="img" tabindex="-1" class="highcharts-point" opacity="1" d="M 77 231 L 81 235 L 77 239 L 73 235 Z" fill-opacity="0.6" fill="rgb(0, 0, 0)"></path><path style="outline: 0px;" aria-label="3. Pelajar, 517 jiwa. Pria." role="img" tabindex="-1" class="highcharts-point" opacity="1" d="M 129 32 L 133 36 L 129 40 L 125 36 Z" fill-opacity="0.6" fill="rgb(0, 0, 0)"></path><path style="outline: 0px;" aria-label="4. Pensiunan, 206 jiwa. Pria." role="img" tabindex="-1" class="highcharts-point" opacity="1" d="M 180 165 L 184 169 L 180 173 L 176 169 Z" fill-opacity="0.6" fill="rgb(0, 0, 0)"></path><path style="outline: 0px;" aria-label="5. PNS, 240 jiwa. Pria." role="img" tabindex="-1" class="highcharts-point" opacity="1" d="M 232 150 L 236 154 L 232 158 L 228 154 Z" fill-opacity="0.6" fill="rgb(0, 0, 0)"></path><path style="outline: 0px;" aria-label="6. TNI, 5 jiwa. Pria." role="img" tabindex="-1" class="highcharts-point" opacity="1" d="M 283 251 L 287 255 L 283 259 L 279 255 Z" fill-opacity="0.6" fill="rgb(0, 0, 0)"></path><path style="outline: 0px;" aria-label="7. POLRI, 11 jiwa. Pria." role="img" tabindex="-1" class="highcharts-point" opacity="1" d="M 335 248 L 339 252 L 335 256 L 331 252 Z" fill-opacity="0.6" fill="rgb(0, 0, 0)"></path><path style="outline: 0px;" aria-label="8. Pedagang, 34 jiwa. Pria." role="img" tabindex="-1" class="highcharts-point" opacity="1" d="M 387 238 L 391 242 L 387 246 L 383 242 Z" fill-opacity="0.6" fill="rgb(0, 0, 0)"></path><path style="outline: 0px;" aria-label="9. Petani, 1 jiwa. Pria." role="img" tabindex="-1" class="highcharts-point" opacity="1" d="M 438 253 L 442 257 L 438 261 L 434 257 Z" fill-opacity="0.6" fill="rgb(0, 0, 0)"></path><path style="outline: 0px;" aria-label="10. Peternak, 1 jiwa. Pria." role="img" tabindex="-1" class="highcharts-point" opacity="1" d="M 490 253 L 494 257 L 490 261 L 486 257 Z" fill-opacity="0.6" fill="rgb(0, 0, 0)"></path></g></g><text aria-hidden="true" y="24" style="color:#333333;font-size:18px;fill:#333333;" data-z-index="4" class="highcharts-title" text-anchor="middle" x="300"></text><text aria-hidden="true" y="52" style="color:#666666;fill:#666666;" data-z-index="4" class="highcharts-subtitle" text-anchor="middle" x="300"></text><text aria-hidden="true" y="397" style="color:#666666;fill:#666666;" data-z-index="4" class="highcharts-caption" text-anchor="start" x="10"></text><g aria-hidden="true" transform="translate(506,60)" data-z-index="7" class="highcharts-legend"><rect visibility="visible" height="46" width="78" y="0.5" x="0.5" stroke-width="1" stroke="#999999" ry="0" rx="0" class="highcharts-legend-box" fill="#FFFFFF"></rect><g data-z-index="1"><g><g transform="translate(8,3)" data-z-index="1" class="highcharts-legend-item highcharts-areaspline-series highcharts-color-undefined highcharts-series-0"><text y="15" data-z-index="2" text-anchor="start" style="color:#333333;cursor:pointer;font-size:12px;font-weight:bold;fill:#333333;" x="21"><tspan>Wanita</tspan></text><rect data-z-index="3" class="highcharts-point" ry="6" rx="6" fill-opacity="0.5" fill="rgb(0, 61, 255)" height="12" width="12" y="4" x="2"></rect></g><g transform="translate(8,21)" data-z-index="1" class="highcharts-legend-item highcharts-areaspline-series highcharts-color-undefined highcharts-series-1"><text data-z-index="2" text-anchor="start" style="color:#333333;cursor:pointer;font-size:12px;font-weight:bold;fill:#333333;" y="15" x="21"><tspan>Pria</tspan></text><rect data-z-index="3" class="highcharts-point" ry="6" rx="6" fill-opacity="0.6" fill="rgb(0, 0, 0)" height="12" width="12" y="4" x="2"></rect></g></g></g></g><g aria-hidden="true" data-z-index="7" class="highcharts-axis-labels highcharts-xaxis-labels"><text opacity="1" y="326" transform="translate(0,0) rotate(-45 102.39272486435068 326)" text-anchor="end" style="color:#666666;cursor:default;font-size:11px;fill:#666666;" x="102.39272486435068">Pengangguran</text><text opacity="1" y="326" transform="translate(0,0) rotate(-45 153.99272486435066 326)" text-anchor="end" style="color:#666666;cursor:default;font-size:11px;fill:#666666;" x="153.99272486435066"><tspan>Rumah Tangga</tspan></text><text opacity="1" y="326" transform="translate(0,0) rotate(-45 205.59272486435069 326)" text-anchor="end" style="color:#666666;cursor:default;font-size:11px;fill:#666666;" x="205.59272486435069">Pelajar</text><text opacity="1" y="326" transform="translate(0,0) rotate(-45 257.1927248643506 326)" text-anchor="end" style="color:#666666;cursor:default;font-size:11px;fill:#666666;" x="257.1927248643506">Pensiunan</text><text opacity="1" y="326" transform="translate(0,0) rotate(-45 308.79272486435065 326)" text-anchor="end" style="color:#666666;cursor:default;font-size:11px;fill:#666666;" x="308.79272486435065">PNS</text><text opacity="1" y="326" transform="translate(0,0) rotate(-45 360.39272486435067 326)" text-anchor="end" style="color:#666666;cursor:default;font-size:11px;fill:#666666;" x="360.39272486435067">TNI</text><text opacity="1" y="326" transform="translate(0,0) rotate(-45 411.99272486435063 326)" text-anchor="end" style="color:#666666;cursor:default;font-size:11px;fill:#666666;" x="411.99272486435063">POLRI</text><text opacity="1" y="326" transform="translate(0,0) rotate(-45 463.59272486435066 326)" text-anchor="end" style="color:#666666;cursor:default;font-size:11px;fill:#666666;" x="463.59272486435066">Pedagang</text><text opacity="1" y="326" transform="translate(0,0) rotate(-45 515.1927248643507 326)" text-anchor="end" style="color:#666666;cursor:default;font-size:11px;fill:#666666;" x="515.1927248643507">Petani</text><text opacity="1" y="326" transform="translate(0,0) rotate(-45 566.7927248643507 326)" text-anchor="end" style="color:#666666;cursor:default;font-size:11px;fill:#666666;" x="566.7927248643507">Peternak</text></g><g aria-hidden="true" data-z-index="7" class="highcharts-axis-labels highcharts-yaxis-labels"><text opacity="1" y="314" transform="translate(0,0)" text-anchor="end" style="color:#666666;cursor:default;font-size:11px;fill:#666666;" x="59">0</text><text opacity="1" y="228" transform="translate(0,0)" text-anchor="end" style="color:#666666;cursor:default;font-size:11px;fill:#666666;" x="59">200</text><text opacity="1" y="143" transform="translate(0,0)" text-anchor="end" style="color:#666666;cursor:default;font-size:11px;fill:#666666;" x="59">400</text><text opacity="1" y="57" transform="translate(0,0)" text-anchor="end" style="color:#666666;cursor:default;font-size:11px;fill:#666666;" x="59">600</text></g></svg>